<svg xmlns="http://www.w3.org/2000/svg" viewBox="0 0 1200 630" role="img" aria-labelledby="og-title og-desc">
  <title id="og-title">Ali Alfatemi — AI researcher</title>
  <desc id="og-desc">Editorial social card for Ali Alfatemi, AI researcher in cybersecurity, machine learning, and multimodal intelligence.</desc>
  <rect width="1200" height="630" fill="#f6f7f3"/>
  <g stroke="#d6dedc" stroke-width="1" opacity=".62">
    <path d="M0 90h1200M0 180h1200M0 270h1200M0 360h1200M0 450h1200M0 540h1200"/>
    <path d="M90 0v630M180 0v630M270 0v630M360 0v630M450 0v630M540 0v630M630 0v630M720 0v630M810 0v630M900 0v630M990 0v630M1080 0v630"/>
  </g>
  <rect x="760" width="440" height="630" fill="#0e1b1f"/>
  <g fill="none" stroke-linecap="round">
    <path d="M820 140h118l70 92h108" stroke="#65d6d0" stroke-width="4"/>
    <path d="M820 315h84l68-68h144" stroke="#f2b37f" stroke-width="4"/>
    <path d="M820 480h136l58-112h102" stroke="#65d6d0" stroke-width="4"/>
  </g>
  <g fill="#0e1b1f">
    <circle cx="820" cy="140" r="10" fill="#65d6d0"/>
    <circle cx="1008" cy="232" r="10" fill="#65d6d0"/>
    <circle cx="820" cy="315" r="10" fill="#f2b37f"/>
    <circle cx="972" cy="247" r="10" fill="#f2b37f"/>
    <circle cx="820" cy="480" r="10" fill="#65d6d0"/>
    <circle cx="1014" cy="368" r="10" fill="#65d6d0"/>
  </g>
  <text x="76" y="102" fill="#006b73" font-family="Menlo, Consolas, monospace" font-size="20" font-weight="700" letter-spacing="2.5">FORDHAM UNIVERSITY · AI / ML</text>
  <text x="72" y="250" fill="#0e1b1f" font-family="Georgia, serif" font-size="86" font-weight="700">Ali Alfatemi</text>
  <text x="76" y="327" fill="#006b73" font-family="Georgia, serif" font-size="38" font-style="italic">AI researcher for resilient</text>
  <text x="76" y="377" fill="#006b73" font-family="Georgia, serif" font-size="38" font-style="italic">and trustworthy systems.</text>
  <text x="76" y="500" fill="#52616b" font-family="Arial, sans-serif" font-size="24">Network security · DDoS defense · Multimodal AI · Computer vision</text>
  <text x="76" y="558" fill="#0e1b1f" font-family="Menlo, Consolas, monospace" font-size="18" font-weight="700">ALIALFATEMI.GITHUB.IO</text>
  <g fill="#eff5f2" font-family="Menlo, Consolas, monospace" font-size="16" font-weight="700" letter-spacing="2">
    <text x="816" y="92">SIGNAL → EVIDENCE</text>
    <text x="816" y="560">DETECT · REASON · DEPLOY</text>
  </g>
</svg>
